Patient4_TMGait_0pt8_01_right_42_EMG.mot
version=1
nRows=16
nColumns=33
inDegrees=no
endheader
time	1LAddLong	2LGlutMax	3LGlutMed	4LIliopsoas	5LSemiMemb	6LBicFemLong	7LRecFem	8LVastMed	9LVastLat	10LGasMed	11LTibAnt	12lTibPost	13LPeroneusLong	14LSol	15LExtDigLong	16LFlexDigLong	17RAddLong	18RGlutMax	19RGlutMed	20RIliopsoas	21RSemiMemb	22RBicFemLong	23RRecFem	24RVastMed	25RVastLat	26RGasMed	27RTibAnt	28RTibPost	29RPeroneusLong	30RSol	31RExtDigLong	32RFlexDigLong
47.18	0.002441	-0.31158	0.06485	0.007324	-0.00061	0.17395	-0.03479	0.005798	-0.002747	-0.04303	0.010986	-0.22293	-0.10208	-0.018005	-0.004272	-0.047455	-0.00412	0.10452	1.2547	-0.012665	-0.029297	0.10284	-0.023041	-0.015411	-0.037842	0.049591	-0.177	-0.007935	0.11871	0.001984	-0.002289	-0.037994
47.181	0.013123	-0.31387	0.066071	0.019379	0.007629	0.28305	-0.044098	-0.005188	0.001984	-0.054779	0.020447	0.30411	-0.31281	-0.46051	-0.10483	-0.036469	0.003967	0.066071	1.1797	-0.032196	-0.02533	0.12054	-0.018311	-0.023346	-0.027313	0.027466	-0.054779	-0.005951	0.027313	-0.00061	-0.005341	-0.011902
47.182	0.018921	-0.3157	0.10513	-0.020142	0.015869	0.42633	-0.033722	0.004272	-0.030975	-0.1004	0.018921	0.20783	-0.12299	-0.26093	-0.007019	-0.010223	0.005951	0.030365	1.0927	0.021515	-0.0354	0.10361	-0.014954	-0.008545	-0.028992	0.019226	0.044708	-0.004578	-0.06134	-0.02533	-0.002441	-0.003357
47.183	0.014496	-0.30685	0.13016	0.006561	0.037384	0.3569	-0.003662	-0.005188	0.025177	-0.026703	0.006866	-0.04425	0.041962	0.3833	0.14053	0.019989	0.003357	0.069733	1.0229	0.037384	-0.036621	0.089874	0.003967	-0.016327	-0.038757	0.008545	0.053406	-0.006256	-0.075378	-0.042572	-0.002136	0.010834
47.184	0.019836	-0.31296	0.018921	0.007019	0.018311	-0.10422	0.039673	-0.012054	0.070038	0.1181	0.005341	-0.049744	0.21805	0.4689	0.15656	0.005493	0.004425	0.063324	0.95886	0.042572	-0.035248	0.079498	-0.018921	-0.02243	-0.026093	-0.002441	0.059967	-0.00351	-0.094452	-0.052338	-0.002136	0.016785
47.185	0.016937	-0.25803	-0.003204	0.03067	0.011902	-0.40573	0.020447	-0.005341	0.08255	0.12955	-0.012207	0.063019	0.34378	0.045471	0.2005	0.024872	0.004883	0.081482	0.80261	-0.036621	-0.035248	0.056763	0.000153	-0.031586	-0.040741	-0.009308	0.079498	-0.003967	-0.055542	-0.043793	-0.006561	0.024567
47.186	0.010986	-0.1889	0.040894	0.038757	0.023804	-0.25711	0.002136	-0.001526	0.089417	0.21576	-0.018768	0.2005	0.42221	-0.40207	0.077515	-0.001526	0.001068	0.061798	0.9993	-0.090027	-0.019379	0.068207	0.039063	-0.021667	-0.0383	-0.011749	0.10315	-0.007019	-0.006409	-0.065613	-0.00473	0.027924
47.187	0.015411	-0.20752	0.075989	0.02182	-0.026093	0.049591	0.01236	-0.002747	0.080109	0.31403	0.016327	0.13031	-0.010529	-0.47211	0.065002	-0.03067	-0.002594	0.037994	1.1359	-0.11887	-0.028381	0.066681	0.085297	-0.027771	-0.052643	-0.019684	0.070648	-0.005341	0.063019	-0.066833	-0.010681	0.027161
47.188	0.00473	-0.18127	0.024261	0.018463	0.025635	0.033264	-0.00412	0.005035	0.080414	0.3775	0.024719	-0.082855	-0.46799	-0.028992	0.076752	-0.010071	0.00946	0.041809	1.1121	-0.000305	-0.044861	0.060577	0.039368	-0.016174	-0.039673	-0.025024	0.057678	-0.006256	0.05661	-0.05661	-0.002747	0.029907
47.189	0.010223	-0.21011	-0.00885	0.00351	-0.006866	0.17197	-0.01236	-0.002594	0.078888	0.29358	-0.019836	-0.068207	0.096283	-0.009613	0.083313	-0.011444	0.015869	0.018158	0.93597	0.14938	-0.043793	0.072327	0.038605	-0.035248	-0.044556	-0.033264	0.045013	-0.006256	0.013123	-0.022736	-0.00351	0.023804
47.19	0.013275	-0.19363	-0.004272	-0.020294	-0.018921	0.22858	-0.050201	-0.007935	0.10635	0.25894	-0.066376	-0.017548	-0.057831	-0.089874	0.003204	0.016022	0.014801	-0.017395	0.94833	0.032959	-0.033569	0.079498	0.021667	-0.04364	-0.035858	-0.031128	0.054016	-0.012512	-0.10696	-0.036621	-0.00061	0.023956
47.191	0.009003	-0.18539	0.010071	-0.014191	-0.031891	-0.018921	-0.033264	-0.004425	0.11505	0.30945	-0.03891	0.014954	0.27176	-0.17975	-0.087433	0.044861	0.005493	0.012512	0.96741	-0.010986	-0.055389	0.079346	-0.012054	-0.032959	-0.038757	-0.033722	0.062714	-0.011902	-0.21011	-0.048828	-0.005798	0.018463
47.192	0.013123	-0.19455	-0.14893	0	-0.020905	-0.26459	0.012054	-0.002747	0.098114	0.2536	-0.019684	0.019226	0.77484	-0.16098	-0.080261	0.014648	0.001984	-0.003967	0.53619	0.031433	-0.13367	0.096741	-0.046234	-0.028229	-0.02533	-0.035095	0.044861	-0.013123	-0.18219	-0.040894	-0.002289	0.017395
47.193	0.011597	-0.17624	-0.13245	0.011444	0.007935	-0.17639	0.039978	0.000305	0.11139	0.38086	0.006104	0.024719	0.11765	-0.089874	-0.04364	-0.007324	0.000763	0.005341	0.57419	-0.023041	-0.089722	0.069122	-0.037994	-0.053558	-0.018768	-0.0354	0.03891	-0.010834	-0.071869	-0.039063	-0.005341	0.01709
47.194	0.015717	-0.13718	-0.11322	0.018616	0.014038	0.071564	0.050812	-0.003662	0.048218	0.33844	-0.022125	0.035706	0.31128	0.10803	0.10788	-0.011292	-0.000916	-0.016479	0.45822	-0.003662	-0.067139	0.062561	-0.086365	-0.015564	-0.034637	-0.049744	0.041809	-0.009308	0.062256	-0.042725	-0.001526	0.015411
47.195	0.005341	-0.12512	-0.047455	0.008698	-0.004578	0.04303	0.075531	0.00412	-0.025024	0.1088	0.009766	0.039673	-0.78751	0.22675	0.011902	-0.023041	0.002747	0.006866	0.63171	0.053101	-0.063477	0.057678	-0.007477	0.016785	-0.02121	-0.041199	0.044403	-0.007629	0.088043	-0.067139	-0.005188	0.010681
